<svg xmlns="http://www.w3.org/2000/svg" width="54.798" height="55.379" viewBox="0 0 54.798 55.379">
  <g id="arroba-white" transform="translate(-0.65)">
    <path id="Trazado_147" data-name="Trazado 147" d="M8.5,47.614a26.613,26.613,0,0,0,8.97,5.712,32.074,32.074,0,0,0,11.558,2.053,36.23,36.23,0,0,0,12.9-2.186c3.525-1.294.491-7.854-2.1-6.783a26.6,26.6,0,0,1-10.309,1.83,24.141,24.141,0,0,1-8.479-1.428A18.461,18.461,0,0,1,14.572,42.8a18.289,18.289,0,0,1-4.195-6.337A22.254,22.254,0,0,1,8.86,27.98a22.618,22.618,0,0,1,1.473-8.256,18.838,18.838,0,0,1,4.105-6.515,18.611,18.611,0,0,1,6.337-4.329,21.265,21.265,0,0,1,8.256-1.562,26.22,26.22,0,0,1,7.72,1.116,15.886,15.886,0,0,1,5.89,3.3,15.37,15.37,0,0,1,3.882,5.4,18.57,18.57,0,0,1,1.384,7.5,19.81,19.81,0,0,1-.536,4.686,12.726,12.726,0,0,1-1.428,3.615,7.1,7.1,0,0,1-2.053,2.231,4.192,4.192,0,0,1-3.392.625c-1.339-.446-1.071-2.32-.982-3.436a36.84,36.84,0,0,1,.848-4.418c.491-2.41,1.026-4.775,1.517-7.14.268-1.294.58-2.633.847-3.927A2.691,2.691,0,0,0,40.1,13.611H38.134a2.679,2.679,0,0,0-2.589,1.963c-.133.535-.268.982-.268.982-.981-3.034-4.6-3.882-7.452-3.838A13.611,13.611,0,0,0,18.142,17.4c-.223.268-.491.535-.714.8a17.218,17.218,0,0,0-2.945,5.31,19.024,19.024,0,0,0-1.071,6.292,17.178,17.178,0,0,0,.759,5.132,12.426,12.426,0,0,0,2.276,4.15,10.491,10.491,0,0,0,3.7,2.767,11.785,11.785,0,0,0,4.909,1.026,10.94,10.94,0,0,0,3.7-.624,13.6,13.6,0,0,0,2.9-1.473,12.045,12.045,0,0,0,1.785-1.473,6.437,6.437,0,0,0,1.16,1.562c1.25,1.339,3.168,2.008,5.712,2.008a14.378,14.378,0,0,0,5.8-1.2,13.745,13.745,0,0,0,4.864-3.659,18.678,18.678,0,0,0,3.258-5.89,24.336,24.336,0,0,0,1.2-7.943,23.818,23.818,0,0,0-2.231-10.576A22.1,22.1,0,0,0,47.237,6.07a25.79,25.79,0,0,0-8.479-4.507A29.776,29.776,0,0,0,29.031,0,29.359,29.359,0,0,0,18.009,2.1,28.817,28.817,0,0,0,8.995,7.943,27.1,27.1,0,0,0,.65,27.756,28.91,28.91,0,0,0,2.7,38.823,25.185,25.185,0,0,0,8.5,47.614ZM32.645,28.872a13.492,13.492,0,0,1-1.383,3.436A8.063,8.063,0,0,1,28.9,34.851a5.553,5.553,0,0,1-3.3.938,3.7,3.7,0,0,1-2.008-.491,3.852,3.852,0,0,1-1.294-1.383,6.51,6.51,0,0,1-.714-1.963,11.028,11.028,0,0,1-.223-1.963,14.146,14.146,0,0,1,.535-3.793A11.732,11.732,0,0,1,23.408,22.8a8.7,8.7,0,0,1,2.365-2.41,4.933,4.933,0,0,1,2.9-.848,4.245,4.245,0,0,1,2.142.446,3.739,3.739,0,0,1,1.294,1.2,6.075,6.075,0,0,1,.758,1.83,10.29,10.29,0,0,1,.268,2.32A17.11,17.11,0,0,1,32.645,28.872Z" transform="translate(0 0)" fill="#fff"/>
  </g>
</svg>
